<svg width="75" height="36" viewBox="0 0 75 36" fill="none" xmlns="http://www.w3.org/2000/svg">
<path d="M6.48 16.16C5.66933 16.16 4.912 16.0107 4.208 15.712C3.504 15.4133 2.88533 15.0027 2.352 14.48C1.81867 13.9467 1.39733 13.3333 1.088 12.64C0.789333 11.9467 0.64 11.2 0.64 10.4C0.64 9.6 0.789333 8.85333 1.088 8.16C1.39733 7.46667 1.81867 6.85867 2.352 6.336C2.88533 5.80267 3.504 5.38667 4.208 5.088C4.912 4.78933 5.66933 4.64 6.48 4.64C6.98133 4.64 7.46667 4.69333 7.936 4.8C8.40533 4.90667 8.83733 5.06667 9.232 5.28C9.392 5.36533 9.50933 5.48267 9.584 5.632C9.66933 5.77067 9.712 5.91467 9.712 6.064C9.712 6.32 9.62667 6.54933 9.456 6.752C9.28533 6.95467 9.06667 7.056 8.8 7.056C8.71467 7.056 8.624 7.04533 8.528 7.024C8.44267 7.00267 8.35733 6.97067 8.272 6.928C8.00533 6.81067 7.72267 6.72 7.424 6.656C7.12533 6.592 6.81067 6.56 6.48 6.56C5.78667 6.56 5.152 6.736 4.576 7.088C4.01067 7.42933 3.55733 7.89333 3.216 8.48C2.88533 9.056 2.72 9.696 2.72 10.4C2.72 11.0933 2.88533 11.7333 3.216 12.32C3.55733 12.9067 4.01067 13.376 4.576 13.728C5.152 14.0693 5.78667 14.24 6.48 14.24C6.8 14.24 7.152 14.208 7.536 14.144C7.92 14.08 8.23467 13.9947 8.48 13.888L8.336 14.368V11.632L8.608 11.872H6.832C6.55467 11.872 6.32 11.7813 6.128 11.6C5.94667 11.4187 5.856 11.1893 5.856 10.912C5.856 10.6347 5.94667 10.4053 6.128 10.224C6.32 10.0427 6.55467 9.952 6.832 9.952H9.456C9.73333 9.952 9.96267 10.048 10.144 10.24C10.3253 10.4213 10.416 10.6507 10.416 10.928V14.32C10.416 14.5333 10.3627 14.7093 10.256 14.848C10.16 14.9867 10.048 15.0987 9.92 15.184C9.42933 15.4827 8.89067 15.7227 8.304 15.904C7.728 16.0747 7.12 16.16 6.48 16.16ZM16.4526 7.312L12.9966 15.44C12.922 15.6427 12.8046 15.8027 12.6446 15.92C12.4953 16.0267 12.33 16.08 12.1486 16.08C11.8606 16.08 11.6473 16 11.5086 15.84C11.37 15.68 11.3006 15.4827 11.3006 15.248C11.3006 15.152 11.3166 15.0507 11.3486 14.944L15.3326 5.376C15.418 5.16267 15.546 4.99733 15.7166 4.88C15.898 4.76267 16.09 4.71467 16.2926 4.736C16.4846 4.736 16.6606 4.79467 16.8206 4.912C16.9913 5.01867 17.114 5.17333 17.1886 5.376L21.1246 14.752C21.178 14.8907 21.2046 15.0187 21.2046 15.136C21.2046 15.424 21.1086 15.6533 20.9166 15.824C20.7353 15.9947 20.5326 16.08 20.3086 16.08C20.1166 16.08 19.9406 16.0213 19.7806 15.904C19.6313 15.7867 19.514 15.6267 19.4286 15.424L15.9886 7.408L16.4526 7.312ZM13.4926 13.488L14.3726 11.648H18.6926L18.9966 13.488H13.4926ZM23.5674 4.784C23.7167 4.784 23.8714 4.82667 24.0314 4.912C24.202 4.98667 24.33 5.088 24.4154 5.216L28.3034 11.2L27.5034 11.168L31.4874 5.216C31.69 4.928 31.9514 4.784 32.2714 4.784C32.5274 4.784 32.7567 4.87467 32.9594 5.056C33.162 5.23733 33.2634 5.472 33.2634 5.76V15.024C33.2634 15.3013 33.1727 15.536 32.9914 15.728C32.81 15.9093 32.57 16 32.2714 16C31.9727 16 31.7274 15.9093 31.5354 15.728C31.354 15.536 31.2634 15.3013 31.2634 15.024V7.488L31.8874 7.632L28.6234 12.608C28.5274 12.7253 28.4047 12.8267 28.2554 12.912C28.1167 12.9973 27.9727 13.0347 27.8234 13.024C27.6847 13.0347 27.5407 12.9973 27.3914 12.912C27.2527 12.8267 27.1354 12.7253 27.0394 12.608L23.9834 7.776L24.3994 6.928V15.024C24.3994 15.3013 24.314 15.536 24.1434 15.728C23.9727 15.9093 23.7487 16 23.4714 16C23.2047 16 22.986 15.9093 22.8154 15.728C22.6447 15.536 22.5594 15.3013 22.5594 15.024V5.76C22.5594 5.49333 22.6554 5.264 22.8474 5.072C23.05 4.88 23.29 4.784 23.5674 4.784ZM36.6448 4.8H42.0048C42.2821 4.8 42.5114 4.89067 42.6927 5.072C42.8848 5.24267 42.9808 5.46667 42.9808 5.744C42.9808 6.01067 42.8848 6.22933 42.6927 6.4C42.5114 6.56 42.2821 6.64 42.0048 6.64H37.5248L37.6688 6.368V9.488L37.5408 9.36H41.2848C41.5621 9.36 41.7914 9.45067 41.9728 9.632C42.1648 9.80267 42.2608 10.0267 42.2608 10.304C42.2608 10.5707 42.1648 10.7893 41.9728 10.96C41.7914 11.12 41.5621 11.2 41.2848 11.2H37.5888L37.6688 11.072V14.304L37.5408 14.16H42.0048C42.2821 14.16 42.5114 14.256 42.6927 14.448C42.8848 14.6293 42.9808 14.8427 42.9808 15.088C42.9808 15.3547 42.8848 15.5733 42.6927 15.744C42.5114 15.9147 42.2821 16 42.0048 16H36.6448C36.3674 16 36.1328 15.9093 35.9408 15.728C35.7594 15.536 35.6688 15.3013 35.6688 15.024V5.776C35.6688 5.49867 35.7594 5.26933 35.9408 5.088C36.1328 4.896 36.3674 4.8 36.6448 4.8Z" fill="#DA00FE"/>
<path d="M27.8 32.16C27.0533 32.16 26.3813 32.0693 25.784 31.888C25.1867 31.696 24.616 31.3653 24.072 30.896C23.9333 30.7787 23.8267 30.6453 23.752 30.496C23.6773 30.3467 23.64 30.1973 23.64 30.048C23.64 29.8027 23.7253 29.5893 23.896 29.408C24.0773 29.216 24.3013 29.12 24.568 29.12C24.7707 29.12 24.952 29.184 25.112 29.312C25.5173 29.6427 25.9173 29.8933 26.312 30.064C26.7173 30.2347 27.2133 30.32 27.8 30.32C28.1947 30.32 28.5573 30.2613 28.888 30.144C29.2187 30.016 29.4853 29.8507 29.688 29.648C29.8907 29.4347 29.992 29.1947 29.992 28.928C29.992 28.608 29.896 28.336 29.704 28.112C29.512 27.888 29.2187 27.7013 28.824 27.552C28.4293 27.392 27.928 27.2693 27.32 27.184C26.744 27.0987 26.2373 26.9707 25.8 26.8C25.3627 26.6187 24.9947 26.3947 24.696 26.128C24.408 25.8507 24.1893 25.5307 24.04 25.168C23.8907 24.7947 23.816 24.3787 23.816 23.92C23.816 23.2267 23.992 22.6347 24.344 22.144C24.7067 21.6533 25.192 21.28 25.8 21.024C26.408 20.768 27.08 20.64 27.816 20.64C28.5093 20.64 29.1493 20.7467 29.736 20.96C30.3333 21.1627 30.8187 21.424 31.192 21.744C31.5013 21.9893 31.656 22.272 31.656 22.592C31.656 22.8267 31.5653 23.04 31.384 23.232C31.2027 23.424 30.9893 23.52 30.744 23.52C30.584 23.52 30.44 23.472 30.312 23.376C30.1413 23.2267 29.912 23.088 29.624 22.96C29.336 22.8213 29.032 22.7093 28.712 22.624C28.392 22.528 28.0933 22.48 27.816 22.48C27.3573 22.48 26.968 22.5387 26.648 22.656C26.3387 22.7733 26.104 22.9333 25.944 23.136C25.784 23.3387 25.704 23.5733 25.704 23.84C25.704 24.16 25.7947 24.4267 25.976 24.64C26.168 24.8427 26.44 25.008 26.792 25.136C27.144 25.2533 27.5653 25.36 28.056 25.456C28.696 25.5733 29.256 25.712 29.736 25.872C30.2267 26.032 30.632 26.24 30.952 26.496C31.272 26.7413 31.512 27.056 31.672 27.44C31.832 27.8133 31.912 28.272 31.912 28.816C31.912 29.5093 31.72 30.1067 31.336 30.608C30.952 31.1093 30.4453 31.4933 29.816 31.76C29.1973 32.0267 28.5253 32.16 27.8 32.16ZM37.5389 32C37.2402 32 36.9949 31.9093 36.8029 31.728C36.6109 31.536 36.5149 31.3013 36.5149 31.024V21.744H38.5949V31.024C38.5949 31.3013 38.4935 31.536 38.2909 31.728C38.0989 31.9093 37.8482 32 37.5389 32ZM34.0029 22.64C33.7255 22.64 33.4909 22.5547 33.2989 22.384C33.1175 22.2133 33.0269 21.9893 33.0269 21.712C33.0269 21.4347 33.1175 21.216 33.2989 21.056C33.4909 20.8853 33.7255 20.8 34.0029 20.8H41.1069C41.3842 20.8 41.6135 20.8853 41.7949 21.056C41.9869 21.2267 42.0829 21.4507 42.0829 21.728C42.0829 22.0053 41.9869 22.2293 41.7949 22.4C41.6135 22.56 41.3842 22.64 41.1069 22.64H34.0029ZM53.754 26.4C53.754 27.2 53.6207 27.9467 53.354 28.64C53.0873 29.3333 52.7087 29.9467 52.218 30.48C51.738 31.0027 51.162 31.4133 50.49 31.712C49.8287 32.0107 49.1033 32.16 48.314 32.16C47.5247 32.16 46.7993 32.0107 46.138 31.712C45.4767 31.4133 44.9007 31.0027 44.41 30.48C43.93 29.9467 43.5567 29.3333 43.29 28.64C43.0233 27.9467 42.89 27.2 42.89 26.4C42.89 25.6 43.0233 24.8533 43.29 24.16C43.5567 23.4667 43.93 22.8587 44.41 22.336C44.9007 21.8027 45.4767 21.3867 46.138 21.088C46.7993 20.7893 47.5247 20.64 48.314 20.64C49.1033 20.64 49.8287 20.7893 50.49 21.088C51.162 21.3867 51.738 21.8027 52.218 22.336C52.7087 22.8587 53.0873 23.4667 53.354 24.16C53.6207 24.8533 53.754 25.6 53.754 26.4ZM51.674 26.4C51.674 25.6853 51.53 25.04 51.242 24.464C50.954 23.8773 50.5593 23.4133 50.058 23.072C49.5567 22.7307 48.9753 22.56 48.314 22.56C47.6527 22.56 47.0713 22.7307 46.57 23.072C46.0687 23.4133 45.674 23.872 45.386 24.448C45.1087 25.024 44.97 25.6747 44.97 26.4C44.97 27.1147 45.1087 27.7653 45.386 28.352C45.674 28.928 46.0687 29.3867 46.57 29.728C47.0713 30.0693 47.6527 30.24 48.314 30.24C48.9753 30.24 49.5567 30.0693 50.058 29.728C50.5593 29.3867 50.954 28.928 51.242 28.352C51.53 27.7653 51.674 27.1147 51.674 26.4ZM56.7426 32C56.444 32 56.1773 31.9093 55.9426 31.728C55.708 31.536 55.5906 31.3013 55.5906 31.024V21.776C55.5906 21.4987 55.6813 21.2693 55.8626 21.088C56.0546 20.896 56.2893 20.8 56.5666 20.8H61.1746C61.7293 20.8 62.2466 20.9493 62.7266 21.248C63.2173 21.536 63.612 21.9413 63.9106 22.464C64.2093 22.976 64.3586 23.568 64.3586 24.24C64.3586 24.6453 64.2733 25.04 64.1026 25.424C63.9426 25.808 63.7186 26.1547 63.4306 26.464C63.1533 26.7733 62.8386 27.0133 62.4866 27.184L62.5026 26.816C62.8013 26.976 63.0466 27.168 63.2386 27.392C63.4413 27.6053 63.596 27.84 63.7026 28.096C63.82 28.3413 63.8893 28.608 63.9106 28.896C63.9533 29.1627 63.98 29.3973 63.9906 29.6C64.012 29.8027 64.044 29.9733 64.0866 30.112C64.14 30.2507 64.236 30.3573 64.3746 30.432C64.6093 30.5707 64.7533 30.7733 64.8066 31.04C64.8706 31.296 64.812 31.5253 64.6306 31.728C64.5133 31.8667 64.364 31.9573 64.1826 32C64.0013 32.032 63.82 32.032 63.6386 32C63.4573 31.9573 63.308 31.904 63.1906 31.84C63.0093 31.7333 62.828 31.5787 62.6466 31.376C62.4653 31.1627 62.316 30.88 62.1986 30.528C62.092 30.176 62.0386 29.7227 62.0386 29.168C62.0386 28.9867 62.0066 28.8213 61.9426 28.672C61.8786 28.512 61.788 28.3787 61.6706 28.272C61.5533 28.1547 61.404 28.0693 61.2226 28.016C61.0413 27.952 60.828 27.92 60.5826 27.92H57.3506L57.5906 27.552V31.024C57.5906 31.3013 57.516 31.536 57.3666 31.728C57.2173 31.9093 57.0093 32 56.7426 32ZM57.3666 26.272H61.0946C61.2866 26.272 61.4733 26.1867 61.6546 26.016C61.836 25.8347 61.9853 25.5947 62.1026 25.296C62.22 24.9867 62.2786 24.6507 62.2786 24.288C62.2786 23.8187 62.1506 23.4293 61.8946 23.12C61.6493 22.8 61.3826 22.64 61.0946 22.64H57.3986L57.5906 22.128V26.656L57.3666 26.272ZM67.551 20.8H72.911C73.1883 20.8 73.4177 20.8907 73.599 21.072C73.791 21.2427 73.887 21.4667 73.887 21.744C73.887 22.0107 73.791 22.2293 73.599 22.4C73.4177 22.56 73.1883 22.64 72.911 22.64H68.431L68.575 22.368V25.488L68.447 25.36H72.191C72.4683 25.36 72.6977 25.4507 72.879 25.632C73.071 25.8027 73.167 26.0267 73.167 26.304C73.167 26.5707 73.071 26.7893 72.879 26.96C72.6977 27.12 72.4683 27.2 72.191 27.2H68.495L68.575 27.072V30.304L68.447 30.16H72.911C73.1883 30.16 73.4177 30.256 73.599 30.448C73.791 30.6293 73.887 30.8427 73.887 31.088C73.887 31.3547 73.791 31.5733 73.599 31.744C73.4177 31.9147 73.1883 32 72.911 32H67.551C67.2737 32 67.039 31.9093 66.847 31.728C66.6657 31.536 66.575 31.3013 66.575 31.024V21.776C66.575 21.4987 66.6657 21.2693 66.847 21.088C67.039 20.896 67.2737 20.8 67.551 20.8Z" fill="#A100ED"/>
</svg>
